<svg xmlns="http://www.w3.org/2000/svg" viewBox="0 0 32 32" fill="none">
  <!-- Blue rounded square background matching brand (#2563EB) -->
  <rect width="32" height="32" rx="7" fill="#2563EB"/>
  <!-- Lucide Dna icon paths, translated to centre in 32x32 (shifted +4,+4, scaled from 24→24 so transform="translate(4,4)") -->
  <g transform="translate(4,4)" stroke="white" stroke-width="2" stroke-linecap="round" stroke-linejoin="round" fill="none">
    <path d="m10 16 1.5 1.5"/>
    <path d="m14 8-1.5-1.5"/>
    <path d="M15 2c-1.798 1.998-2.518 3.995-2.807 5.993"/>
    <path d="m16.5 10.5 1 1"/>
    <path d="m17 6-2.891-2.891"/>
    <path d="M2 15c6.667-6 13.333 0 20-6"/>
    <path d="m20 9 .891.891"/>
    <path d="M3.109 14.109 4 15"/>
    <path d="m6.5 12.5 1 1"/>
    <path d="m7 18 2.891 2.891"/>
    <path d="M9 22c1.798-1.998 2.518-3.995 2.807-5.993"/>
  </g>
</svg>
